<mxfile host="app.diagrams.net" modified="2023-11-11T18:12:51.092Z" agent="Mozilla/5.0 (Windows NT 10.0; Win64; x64) AppleWebKit/537.36 (KHTML, like Gecko) Chrome/119.0.0.0 Safari/537.36" etag="QgD4i9XmoVfAfVCcoL_B" version="22.1.0" type="github">
  <diagram name="Page-1" id="-Xc6EeOIjrptHWJ5mNu8">
    <mxGraphModel dx="1075" dy="445" grid="1" gridSize="10" guides="1" tooltips="1" connect="1" arrows="1" fold="1" page="1" pageScale="1" pageWidth="827" pageHeight="1169" math="0" shadow="0">
      <root>
        <mxCell id="0" />
        <mxCell id="1" parent="0" />
        <mxCell id="P0bgIa3_dCRbjvqC2Djv-3" value="" style="edgeStyle=orthogonalEdgeStyle;rounded=0;orthogonalLoop=1;jettySize=auto;html=1;" edge="1" parent="1" source="eii6ioJTacmF4yy5u-Xr-1" target="P0bgIa3_dCRbjvqC2Djv-2">
          <mxGeometry relative="1" as="geometry" />
        </mxCell>
        <mxCell id="eii6ioJTacmF4yy5u-Xr-1" value="START" style="ellipse;whiteSpace=wrap;html=1;" parent="1" vertex="1">
          <mxGeometry x="340" y="40" width="120" height="80" as="geometry" />
        </mxCell>
        <mxCell id="P0bgIa3_dCRbjvqC2Djv-12" value="" style="edgeStyle=orthogonalEdgeStyle;rounded=0;orthogonalLoop=1;jettySize=auto;html=1;" edge="1" parent="1" source="P0bgIa3_dCRbjvqC2Djv-2" target="P0bgIa3_dCRbjvqC2Djv-4">
          <mxGeometry relative="1" as="geometry" />
        </mxCell>
        <mxCell id="P0bgIa3_dCRbjvqC2Djv-2" value="- cerco le directory con nome &quot;gr0-9][0-9]_lab01&quot; nel path corrente&lt;br&gt;- creo il vettore &quot;vector_d&quot; con il path delle directory trovate&lt;br&gt;- ordino il vettore &quot;vector_d&quot;&lt;br&gt;- lenght_v = numero di elementi di &quot;vector_d&quot;&lt;br&gt;- l_v = indice dell&#39;ultimo elemento di &quot;vector_d&quot;" style="rounded=0;whiteSpace=wrap;html=1;" vertex="1" parent="1">
          <mxGeometry x="220" y="150" width="360" height="100" as="geometry" />
        </mxCell>
        <mxCell id="P0bgIa3_dCRbjvqC2Djv-7" value="" style="edgeStyle=orthogonalEdgeStyle;rounded=0;orthogonalLoop=1;jettySize=auto;html=1;" edge="1" parent="1" source="P0bgIa3_dCRbjvqC2Djv-4" target="P0bgIa3_dCRbjvqC2Djv-6">
          <mxGeometry relative="1" as="geometry" />
        </mxCell>
        <mxCell id="P0bgIa3_dCRbjvqC2Djv-14" style="edgeStyle=orthogonalEdgeStyle;rounded=0;orthogonalLoop=1;jettySize=auto;html=1;entryX=0.5;entryY=0;entryDx=0;entryDy=0;" edge="1" parent="1" source="P0bgIa3_dCRbjvqC2Djv-4" target="P0bgIa3_dCRbjvqC2Djv-5">
          <mxGeometry relative="1" as="geometry" />
        </mxCell>
        <mxCell id="P0bgIa3_dCRbjvqC2Djv-4" value="esiste il file &quot;report.txt&quot;?" style="rhombus;whiteSpace=wrap;html=1;" vertex="1" parent="1">
          <mxGeometry x="280" y="280" width="240" height="80" as="geometry" />
        </mxCell>
        <mxCell id="P0bgIa3_dCRbjvqC2Djv-9" style="edgeStyle=orthogonalEdgeStyle;rounded=0;orthogonalLoop=1;jettySize=auto;html=1;" edge="1" parent="1">
          <mxGeometry relative="1" as="geometry">
            <mxPoint x="400" y="450" as="targetPoint" />
            <mxPoint x="625" y="420" as="sourcePoint" />
            <Array as="points">
              <mxPoint x="625" y="450" />
            </Array>
          </mxGeometry>
        </mxCell>
        <mxCell id="P0bgIa3_dCRbjvqC2Djv-5" value="rimuovi file &quot;report.txt&quot;" style="rounded=0;whiteSpace=wrap;html=1;" vertex="1" parent="1">
          <mxGeometry x="570" y="360" width="150" height="60" as="geometry" />
        </mxCell>
        <mxCell id="P0bgIa3_dCRbjvqC2Djv-19" value="" style="edgeStyle=orthogonalEdgeStyle;rounded=0;orthogonalLoop=1;jettySize=auto;html=1;" edge="1" parent="1" source="P0bgIa3_dCRbjvqC2Djv-6" target="P0bgIa3_dCRbjvqC2Djv-18">
          <mxGeometry relative="1" as="geometry" />
        </mxCell>
        <mxCell id="P0bgIa3_dCRbjvqC2Djv-6" value="- crea il file &quot;report.txt&quot;&lt;br&gt;- i = 0" style="rounded=0;whiteSpace=wrap;html=1;" vertex="1" parent="1">
          <mxGeometry x="325" y="470" width="150" height="60" as="geometry" />
        </mxCell>
        <mxCell id="P0bgIa3_dCRbjvqC2Djv-10" value="yes" style="text;html=1;strokeColor=none;fillColor=none;align=center;verticalAlign=middle;whiteSpace=wrap;rounded=0;" vertex="1" parent="1">
          <mxGeometry x="510" y="320" width="60" height="30" as="geometry" />
        </mxCell>
        <mxCell id="P0bgIa3_dCRbjvqC2Djv-15" value="no" style="text;html=1;strokeColor=none;fillColor=none;align=center;verticalAlign=middle;whiteSpace=wrap;rounded=0;" vertex="1" parent="1">
          <mxGeometry x="360" y="630" width="60" height="30" as="geometry" />
        </mxCell>
        <mxCell id="P0bgIa3_dCRbjvqC2Djv-21" value="" style="edgeStyle=orthogonalEdgeStyle;rounded=0;orthogonalLoop=1;jettySize=auto;html=1;" edge="1" parent="1" source="P0bgIa3_dCRbjvqC2Djv-18" target="P0bgIa3_dCRbjvqC2Djv-20">
          <mxGeometry relative="1" as="geometry" />
        </mxCell>
        <mxCell id="P0bgIa3_dCRbjvqC2Djv-25" style="edgeStyle=orthogonalEdgeStyle;rounded=0;orthogonalLoop=1;jettySize=auto;html=1;" edge="1" parent="1" source="P0bgIa3_dCRbjvqC2Djv-18">
          <mxGeometry relative="1" as="geometry">
            <mxPoint x="760" y="740" as="targetPoint" />
          </mxGeometry>
        </mxCell>
        <mxCell id="P0bgIa3_dCRbjvqC2Djv-18" value="i = l_v" style="rhombus;whiteSpace=wrap;html=1;" vertex="1" parent="1">
          <mxGeometry x="285" y="560" width="230" height="80" as="geometry" />
        </mxCell>
        <mxCell id="P0bgIa3_dCRbjvqC2Djv-36" value="" style="edgeStyle=orthogonalEdgeStyle;rounded=0;orthogonalLoop=1;jettySize=auto;html=1;" edge="1" parent="1" source="P0bgIa3_dCRbjvqC2Djv-20" target="P0bgIa3_dCRbjvqC2Djv-27">
          <mxGeometry relative="1" as="geometry" />
        </mxCell>
        <mxCell id="P0bgIa3_dCRbjvqC2Djv-20" value="numg = i + 1" style="rounded=0;whiteSpace=wrap;html=1;" vertex="1" parent="1">
          <mxGeometry x="305" y="670" width="190" height="60" as="geometry" />
        </mxCell>
        <mxCell id="P0bgIa3_dCRbjvqC2Djv-22" value="no" style="text;html=1;strokeColor=none;fillColor=none;align=center;verticalAlign=middle;whiteSpace=wrap;rounded=0;" vertex="1" parent="1">
          <mxGeometry x="360" y="370" width="60" height="30" as="geometry" />
        </mxCell>
        <mxCell id="P0bgIa3_dCRbjvqC2Djv-23" value="yes" style="text;html=1;strokeColor=none;fillColor=none;align=center;verticalAlign=middle;whiteSpace=wrap;rounded=0;" vertex="1" parent="1">
          <mxGeometry x="500" y="600" width="60" height="30" as="geometry" />
        </mxCell>
        <mxCell id="P0bgIa3_dCRbjvqC2Djv-30" style="edgeStyle=orthogonalEdgeStyle;rounded=0;orthogonalLoop=1;jettySize=auto;html=1;entryX=0.5;entryY=0;entryDx=0;entryDy=0;" edge="1" parent="1" source="P0bgIa3_dCRbjvqC2Djv-27" target="P0bgIa3_dCRbjvqC2Djv-29">
          <mxGeometry relative="1" as="geometry">
            <Array as="points">
              <mxPoint x="528" y="820" />
              <mxPoint x="528" y="850" />
            </Array>
          </mxGeometry>
        </mxCell>
        <mxCell id="P0bgIa3_dCRbjvqC2Djv-31" style="edgeStyle=orthogonalEdgeStyle;rounded=0;orthogonalLoop=1;jettySize=auto;html=1;entryX=0.5;entryY=0;entryDx=0;entryDy=0;" edge="1" parent="1" source="P0bgIa3_dCRbjvqC2Djv-27" target="P0bgIa3_dCRbjvqC2Djv-28">
          <mxGeometry relative="1" as="geometry">
            <Array as="points">
              <mxPoint x="263" y="820" />
              <mxPoint x="263" y="850" />
            </Array>
          </mxGeometry>
        </mxCell>
        <mxCell id="P0bgIa3_dCRbjvqC2Djv-27" value="numg &amp;lt; 10" style="rhombus;whiteSpace=wrap;html=1;" vertex="1" parent="1">
          <mxGeometry x="315" y="760" width="170" height="80" as="geometry" />
        </mxCell>
        <mxCell id="P0bgIa3_dCRbjvqC2Djv-28" value="sul file &quot;report.txt&quot; scrivi &quot;gr0$numg&quot;" style="shape=parallelogram;perimeter=parallelogramPerimeter;whiteSpace=wrap;html=1;fixedSize=1;" vertex="1" parent="1">
          <mxGeometry x="175" y="870" width="175" height="60" as="geometry" />
        </mxCell>
        <mxCell id="P0bgIa3_dCRbjvqC2Djv-29" value="sul file &quot;report.txt&quot; scrivi &quot;gr$numg&quot;" style="shape=parallelogram;perimeter=parallelogramPerimeter;whiteSpace=wrap;html=1;fixedSize=1;" vertex="1" parent="1">
          <mxGeometry x="440" y="870" width="175" height="60" as="geometry" />
        </mxCell>
        <mxCell id="P0bgIa3_dCRbjvqC2Djv-32" value="yes" style="text;html=1;strokeColor=none;fillColor=none;align=center;verticalAlign=middle;whiteSpace=wrap;rounded=0;" vertex="1" parent="1">
          <mxGeometry x="255" y="820" width="60" height="30" as="geometry" />
        </mxCell>
        <mxCell id="P0bgIa3_dCRbjvqC2Djv-35" value="no" style="text;html=1;strokeColor=none;fillColor=none;align=center;verticalAlign=middle;whiteSpace=wrap;rounded=0;" vertex="1" parent="1">
          <mxGeometry x="470" y="820" width="60" height="30" as="geometry" />
        </mxCell>
      </root>
    </mxGraphModel>
  </diagram>
</mxfile>
